<svg version="1.2" xmlns="http://www.w3.org/2000/svg" viewBox="0 0 353 125" width="353" height="125">
	<title>jahez-seeklogo</title>
	<style>
		.s0 { fill: #fefefe } 
		.s1 { fill: #f9a519 } 
	</style>
	<g id="Layer 1">
		<g id="&lt;Group&gt;">
			<path id="&lt;Path&gt;" class="s0" d="m276.4 93h45.8v-9.9h-28.7l27.9-34.2v-9.4h-43.8v9.9h26.3l-27.5 34.5z"/>
			<path id="&lt;Path&gt;" class="s0" d="m65.7 37.9h-14.3v12.2h14.3v35.4c0 6.9-12.4 19.8-28.3 5.6-3.3 4.6-6.6 9.3-6.6 9.3 19 16.4 47.1 5.9 47.1-14.9v-35.4-12.2z"/>
			<g id="&lt;Group&gt;">
				<g id="&lt;Group&gt;">
					<path id="&lt;Path&gt;" class="s1" d="m124.8 65.4c0 5.6-4.6 10.2-10.2 10.2-5.7 0-10.3-4.6-10.3-10.2 0-5.7 4.6-10.3 10.3-10.3 5.6 0 10.2 4.6 10.2 10.3z"/>
				</g>
				<path id="&lt;Compound Path&gt;" class="s0" d="m132.5 38.1v5.8c-4.8-3.9-10.9-6.2-17.6-6.2-15.5 0-28 12.4-28 27.7 0 15.3 12.5 27.6 28 27.6 6.7 0 12.8-2.3 17.6-6.2v5.8h12.2v-54.5zm-18 44.4c-9.4 0-17.1-7.7-17.1-17.1 0-9.5 7.7-17.1 17.1-17.1 9.4 0 17.1 7.6 17.1 17.1 0 9.4-7.7 17.1-17.1 17.1z"/>
			</g>
			<path id="&lt;Path&gt;" class="s0" d="m184.7 36.7c-8.4 0-16.2 6.4-17.3 8.9v-28.7h-12.1v76.1h12.1v-32.9c0-3.6 3.1-12 13-12 9.9 0 12.1 8.9 12.1 12v32.9h12.2v-32.9c0-18.2-11.6-23.4-20-23.4z"/>
			<path id="&lt;Compound Path&gt;" class="s0" d="m242.3 36.1c-11.1 0-28.2 6.8-28.2 29.8 0 22.1 18.9 27.1 28.8 27.1 8.7 0 18.5-2 23.7-7.2 0 0-3.1-5.5-5.4-8.9-22.2 14-34.8-2.9-34.8-8.2h41.2c4.3-26.7-14.2-32.6-25.3-32.6zm-15.6 24.1c0-4.6 4.9-13.4 14.4-13.4 9.6 0 14.5 8.5 14.5 13.4z"/>
		</g>
	</g>
</svg>